PathFileType	4	(X/Y/Z)	./resultDataOpenSim/trcMotMarkerGrf/sub09/qtm-01-02.trc
DataRate	CameraRate	NumFrames	NumMarkers	Units	OrigDataRate	OrigDataStartFrame	OrigNumFrames
250.000000	250.000000	13	24	m	250.000000	372	495
Frame#	Time	L.Toe.Tip			R.Toe.Tip			L.Ankle.Lat			R.Ankle.Lat			L.Ankle.Med			R.Ankle.Med			L.Heel			R.Heel			L.Knee.Lat			R.Knee.Lat			L.Knee.Med			R.Knee.Med			L.Thigh.Upper			R.Thigh.Upper			L.ASIS			R.ASIS			V.Sacral			L.Acromium			R.Acromium			C7			L.Elbow			R.Elbow			L.Wrist.Lat			R.Wrist.Lat
		X1	Y1	Z1	X2	Y2	Z2	X3	Y3	Z3	X4	Y4	Z4	X5	Y5	Z5	X6	Y6	Z6	X7	Y7	Z7	X8	Y8	Z8	X9	Y9	Z9	X10	Y10	Z10	X11	Y11	Z11	X12	Y12	Z12	X13	Y13	Z13	X14	Y14	Z14	X15	Y15	Z15	X16	Y16	Z16	X17	Y17	Z17	X18	Y18	Z18	X19	Y19	Z19	X20	Y20	Z20	X21	Y21	Z21	X22	Y22	Z22	X23	Y23	Z23	X24	Y24	Z24

372	1.484	0.82961815	0.082223664	-0.011723318	0.99546089	0.039361468	0.13076743	0.72598818	0.1964016	-0.034523892	0.8475816	0.056596325	0.17148034	0.75903049	0.18923885	0.058480268	0.85716333	0.097949802	0.08104586	0.64780294	0.19961152	0.016171737	0.77709909	0.039009163	0.1239453	1.0003752	0.50382321	-0.052968665	0.94253312	0.50625597	0.23743444	1.0090389	0.49195	0.072549258	0.92399808	0.49583145	0.10670932	0.85602727	0.89256496	-0.073209983	0.87741822	0.90720818	0.29558689	0.93231163	0.98402079	-0.020082307	0.95512594	0.99391627	0.21747619	0.77387304	1.0388441	0.1097719	0.9005421	1.4417571	-0.067505516	0.90709375	1.4527089	0.26365321	0.83469112	1.4933063	0.10145812	0.75179028	1.1065783	-0.11806446	0.81014974	1.0988333	0.36356318	0.87980285	0.87427283	-0.15294499	1.0002075	0.89938536	0.35589935
373	1.488	0.84869194	0.080405769	-0.011645548	0.99549734	0.039281658	0.13086363	0.7421968	0.19177245	-0.034439636	0.84764848	0.056795796	0.17137544	0.77584811	0.18542548	0.058434838	0.85755281	0.098124922	0.080921039	0.6637726	0.19293974	0.016304056	0.77770591	0.039319152	0.12377022	1.0093233	0.50591244	-0.052580259	0.94367557	0.50641849	0.23721471	1.0179301	0.49453987	0.072676864	0.92524546	0.49583235	0.1076592	0.86182173	0.89376571	-0.073248432	0.88111629	0.90754956	0.29603402	0.93753605	0.98513805	-0.019698322	0.95986932	0.99460103	0.21787769	0.77885448	1.0396668	0.10984595	0.90551403	1.4424293	-0.067500878	0.9125111	1.453695	0.26359776	0.83993195	1.4941472	0.101539	0.75593749	1.1078337	-0.11766945	0.81577722	1.0996905	0.36397992	0.883448	0.87517662	-0.1536749	1.0071822	0.90140327	0.35528911
374	1.492	0.86791328	0.078649501	-0.011549665	0.99554011	0.039214551	0.13095269	0.75854047	0.18710186	-0.034334203	0.84771117	0.056997551	0.17126874	0.79247264	0.18160828	0.058516545	0.85788406	0.098279222	0.080809408	0.68006642	0.18621671	0.016312572	0.77831825	0.039536972	0.12369459	1.0181542	0.50788904	-0.052206493	0.94491852	0.50664228	0.23693607	1.0264953	0.49694733	0.072565958	0.92652581	0.49584826	0.10858944	0.86774456	0.89489422	-0.073355688	0.88460626	0.90779947	0.29665289	0.94276218	0.9861819	-0.019314285	0.96461075	0.99522731	0.21826411	0.78378754	1.0404226	0.10985344	0.91049532	1.4430404	-0.067496602	0.91790653	1.4546204	0.26355013	0.84516491	1.4949261	0.10160806	0.7601844	1.1090815	-0.11726146	0.82140092	1.100498	0.36441917	0.88714329	0.8759905	-0.15440551	1.0141489	0.90337163	0.35466416
375	1.496	0.88721315	0.076959645	-0.011442968	0.99559994	0.039181018	0.13103004	0.77500154	0.18241822	-0.034198492	0.84777008	0.057194164	0.17115273	0.80898534	0.17779052	0.058682597	0.8581517	0.098462954	0.080744488	0.69667645	0.17950069	0.016203488	0.77880128	0.0396786	0.12363113	1.026908	0.50974643	-0.051834423	0.94632583	0.50680957	0.23681526	1.0346472	0.4991175	0.072290066	0.92774456	0.49587667	0.10923404	0.87367932	0.89595422	-0.073485305	0.88832202	0.90811753	0.29714919	0.94798898	0.98714695	-0.018936901	0.96932554	0.99579617	0.2186373	0.78868743	1.0411168	0.1098029	0.9154874	1.4435915	-0.067494164	0.92327684	1.455483	0.26350852	0.85038833	1.4956399	0.10166297	0.7644458	1.110204	-0.1169118	0.82702891	1.101249	0.36488131	0.89084422	0.87672501	-0.1551344	1.0211053	0.9052907	0.35402486
376	1.5	0.90653512	0.075346893	-0.011342887	0.99568301	0.03917567	0.13109086	0.79158434	0.17774052	-0.034043158	0.84782841	0.057380033	0.17102253	0.82555739	0.17397624	0.058871832	0.85849804	0.098724128	0.08071897	0.71346988	0.17280816	0.016142258	0.77909744	0.039831749	0.12347744	1.035579	0.51151453	-0.051465862	0.94769329	0.50688148	0.23682641	1.0422013	0.50103602	0.071982915	0.92876766	0.49591856	0.10937688	0.87949263	0.89694518	-0.073570755	0.89216943	0.90853619	0.29746951	0.95322721	0.98803684	-0.018576075	0.97401218	0.99631329	0.21900759	0.79362029	1.0417694	0.10971458	0.92049018	1.4440829	-0.067494844	0.92861948	1.4562796	0.26346884	0.8556003	1.4962914	0.101708	0.76868041	1.1111523	-0.11665614	0.83270061	1.1019446	0.36538063	0.8945233	0.87740053	-0.15585188	1.0280424	0.90715509	0.35337385
377	1.504	0.92587132	0.073817604	-0.011261597	0.99578819	0.039163457	0.13112709	0.80830538	0.1730818	-0.033875639	0.84788462	0.057558742	0.17087832	0.84224933	0.17017321	0.059088239	0.85902339	0.099063662	0.080712285	0.73033848	0.16610258	0.016322461	0.77925051	0.040054431	0.12322053	1.0441114	0.51322869	-0.051119761	0.94867421	0.50682813	0.2368778	1.0493883	0.50274897	0.071842928	0.9296892	0.49598103	0.1092086	0.885161	0.89785891	-0.073596641	0.89553511	0.90896926	0.29780015	0.95850696	0.98885458	-0.018242835	0.97869201	0.9967886	0.21938745	0.79866174	1.0423943	0.10958473	0.9255021	1.4445156	-0.06749899	0.93393717	1.457009	0.26343091	0.8607993	1.4968909	0.10174282	0.7729191	1.1119649	-0.11646771	0.83842982	1.1025899	0.36592845	0.89818889	0.87802506	-0.15654033	1.0349508	0.90895663	0.35271351
378	1.508	0.9452394	0.072373761	-0.011199786	0.99589366	0.039102299	0.13113787	0.82518483	0.1684438	-0.033700354	0.84793562	0.057741737	0.17072446	0.85898086	0.16639396	0.059385935	0.85955456	0.099414255	0.080700967	0.74734329	0.15929666	0.016814951	0.779345	0.040332841	0.12290924	1.0524554	0.51486663	-0.050805794	0.94906098	0.50663361	0.23693574	1.0573938	0.50438206	0.072133911	0.93080187	0.49607299	0.1092414	0.89078312	0.89868353	-0.073603197	0.89802519	0.9093403	0.29829111	0.96385509	0.98959595	-0.01794746	0.98338046	0.99722742	0.21977914	0.80384349	1.0429919	0.10940555	0.93052103	1.4448891	-0.067504145	0.9392355	1.4576721	0.26339781	0.86598878	1.4974448	0.101765	0.77720095	1.1126963	-0.11630306	0.84417023	1.1031732	0.36649959	0.90185904	0.87859415	-0.15718459	1.0418282	0.91069196	0.35204417
379	1.512	0.96466725	0.071036443	-0.011146827	0.99595106	0.038977799	0.13114378	0.84223312	0.16381599	-0.033525371	0.84798621	0.057936787	0.17056539	0.87567246	0.16264975	0.059774601	0.85973598	0.099672797	0.080636055	0.76465449	0.15232526	0.017512464	0.77942936	0.040625391	0.12257299	1.0605863	0.51637223	-0.050515561	0.94892367	0.50632046	0.23700311	1.0677264	0.50609091	0.073074456	0.93216669	0.49620781	0.10966788	0.89649629	0.89941202	-0.073640178	0.90020082	0.90967348	0.29884824	0.9692518	0.99025272	-0.017681189	0.98807505	0.99762573	0.22017549	0.80909603	1.0435397	0.10919862	0.93554549	1.4452017	-0.067507638	0.94451587	1.4582678	0.2633697	0.87117457	1.4979439	0.10177939	0.78152445	1.1133717	-0.1161382	0.84985945	1.1036683	0.36703847	0.90554098	0.87910704	-0.15778573	1.0486762	0.91236323	0.351363
380	1.516	0.98418537	0.069840609	-0.011088197	0.99594064	0.038826873	0.13116943	0.85943577	0.15920136	-0.033354237	0.8480444	0.058139128	0.17040081	0.89242297	0.1589566	0.060152132	0.85950045	0.099804307	0.08047762	0.78231399	0.14527673	0.01819947	0.77950173	0.040897053	0.12219645	1.0685097	0.51773073	-0.050245146	0.94848946	0.505915	0.23707043	1.080841	0.50794385	0.074653013	0.93356383	0.49640486	0.11023492	0.90237737	0.9000444	-0.073729283	0.90313046	0.91005513	0.29923516	0.97463774	0.99081746	-0.017413748	0.99276518	0.99797817	0.22057094	0.81429261	1.044002	0.10899964	0.94057385	1.4454514	-0.067510569	0.94977667	1.458794	0.26334446	0.87635773	1.4983723	0.10179502	0.78586234	1.1139876	-0.11596872	0.85547474	1.1040623	0.36750786	0.90923767	0.87956665	-0.15835897	1.0554937	0.91397251	0.35066579
381	1.52	1.0037912	0.068796268	-0.011020426	0.99592174	0.038714585	0.13121129	0.87676053	0.15463361	-0.033182623	0.84810735	0.058336123	0.17022534	0.9094399	0.15534302	0.060385577	0.85924426	0.099898085	0.080256631	0.8001702	0.13836222	0.018717554	0.77954827	0.041138156	0.12175959	1.0762694	0.51897059	-0.05000538	0.94802902	0.50542335	0.23709272	1.0956326	0.50986282	0.076570718	0.93486649	0.49665767	0.11071284	0.90835378	0.900584	-0.073842146	0.90722109	0.91051393	0.29935181	0.97997634	0.99128865	-0.017123994	0.99744139	0.99828602	0.2209632	0.81934605	1.0443467	0.10880233	0.94560483	1.4456373	-0.067515573	0.95502039	1.4592501	0.26332261	0.88153573	1.4987271	0.10181412	0.79020509	1.1145302	-0.11580182	0.86102157	1.1043599	0.36791158	0.91296034	0.87996527	-0.15892011	1.0622763	0.91552113	0.34995089
382	1.524	1.0234436	0.067884862	-0.010950239	0.99598978	0.038688095	0.13124491	0.89418174	0.15015278	-0.033007228	0.84816086	0.058518966	0.17003379	0.9267583	0.15183002	0.060483814	0.85931811	0.10005895	0.080050003	0.81813661	0.13171242	0.019047852	0.77958348	0.041377594	0.12129021	1.0839149	0.52010867	-0.049798759	0.9479371	0.50488183	0.23700809	1.110135	0.5116782	0.078380411	0.93615257	0.49690187	0.11106795	0.91424554	0.90103416	-0.073920949	0.91204298	0.91099354	0.2992955	0.9852794	0.99167365	-0.016818039	1.0020991	0.99855337	0.22134644	0.82420716	1.0445369	0.10853828	0.95063936	1.4457613	-0.067524719	0.96025025	1.4596367	0.26330353	0.88670653	1.4990168	0.10182898	0.79456927	1.1149902	-0.11564876	0.86651501	1.1045725	0.36827907	0.91672645	0.88028541	-0.15947529	1.0690193	0.91701052	0.34922014
383	1.528	1.0431062	0.06709715	-0.010880384	0.99620388	0.038757252	0.13125898	0.91168786	0.1457833	-0.032829299	0.84819531	0.058685759	0.16982608	0.94411072	0.14839399	0.060703285	0.85967042	0.10029921	0.079902669	0.83629671	0.1253141	0.019253696	0.7796404	0.041648072	0.12084016	1.091467	0.52113428	-0.049603323	0.94876865	0.50442256	0.23680965	1.1226266	0.51322997	0.079708043	0.93751737	0.49706707	0.1113254	0.91994012	0.90139863	-0.073935185	0.9170205	0.91142763	0.29920322	0.99057617	0.99198291	-0.016514469	1.0067468	0.99878035	0.22171232	0.82885355	1.0445426	0.10814132	0.95567959	1.4458284	-0.067539736	0.96546502	1.459956	0.26328265	0.89186633	1.4992477	0.10183018	0.79897204	1.1153693	-0.11551134	0.87200468	1.1047195	0.3686471	0.9205457	0.88051815	-0.16002006	1.0757227	0.91843794	0.34847745
384	1.532	1.0627706	0.06645034	-0.010806665	0.99655655	0.038899768	0.13127401	0.92926722	0.14154249	-0.032648439	0.84821782	0.058836686	0.1696046	0.96107815	0.14495785	0.061472856	0.8600782	0.10056764	0.079795191	0.85466675	0.11914456	0.019365169	0.77971652	0.041940475	0.12040235	1.0989016	0.52204478	-0.049404543	0.95094036	0.50426299	0.23664201	1.1324668	0.51444515	0.080428906	0.93894103	0.49715717	0.11150172	0.92546225	0.90168274	-0.0739017	0.92182577	0.91178766	0.29914989	0.99588568	0.99222151	-0.016225233	1.0114064	0.99896386	0.22205775	0.83337313	1.0444027	0.10764414	0.96072613	1.4458453	-0.067561321	0.97066278	1.4602121	0.26325806	0.89701244	1.4994227	0.10181614	0.80341834	1.1156791	-0.11537796	0.87756339	1.1048231	0.36904329	0.92441278	0.88066972	-0.16054528	1.0823919	0.91979688	0.34772805
